<?xml version="1.0" encoding="UTF-8"?>
<!DOCTYPE svg PUBLIC "-//W3C//DTD SVG 1.1//EN" "http://www.w3.org/Graphics/SVG/1.1/DTD/svg11.dtd">
<svg xmlns="http://www.w3.org/2000/svg" viewBox="400 400 1200 1200" width="2048" height="2048" style="shape-rendering:geometricPrecision; text-rendering:geometricPrecision; image-rendering:optimizeQuality; fill-rule:evenodd; clip-rule:evenodd" xmlns:xlink="http://www.w3.org/1999/xlink">
<!-- Removed white background path -->
<g><path style="opacity:1" fill="#4c4e54" d="M 834.5,585.5 C 840.771,585.321 846.771,586.487 852.5,589C 867.835,596.997 882.502,605.997 896.5,616C 911.661,630.504 918.994,648.337 918.5,669.5C 918.254,678.627 917.088,687.627 915,696.5C 900.235,739.743 885.402,782.91 870.5,826C 869.809,853.068 860.975,877.235 844,898.5C 835.324,907.757 825.157,914.924 813.5,920C 815.733,966.361 831.566,1007.53 861,1043.5C 921.729,1111.74 996.896,1135.91 1086.5,1116C 1170.88,1090.09 1223.72,1034.26 1245,948.5C 1256.1,889.087 1245.27,834.087 1212.5,783.5C 1224.5,774.833 1234.83,764.5 1243.5,752.5C 1275.16,796.152 1291.5,845.152 1292.5,899.5C 1291.68,991.305 1254.68,1064.47 1181.5,1119C 1107.27,1168.37 1027.6,1179.37 942.5,1152C 866.486,1123.32 813.653,1071.15 784,995.5C 775.316,971.912 770.149,947.578 768.5,922.5C 749.11,917.884 733.944,907.218 723,890.5C 708.26,867.951 700.593,843.285 700,816.5C 686.282,776.013 672.949,735.346 660,694.5C 651.783,656.141 663.283,625.307 694.5,602C 699.599,599.117 704.933,596.783 710.5,595C 720.25,591.292 730.25,588.459 740.5,586.5C 751.521,587.038 759.021,592.372 763,602.5C 765.156,622.486 756.156,633.486 736,635.5C 730.967,634.699 726.133,633.199 721.5,631C 718.833,630.333 716.167,630.333 713.5,631C 696.081,643.009 688.914,659.509 692,680.5C 705.401,724.036 720.401,767.036 737,809.5C 740,813.833 743,818.167 746,822.5C 748.925,837.945 754.591,852.279 763,865.5C 776.08,881.052 790.58,882.552 806.5,870C 813.259,862.655 818.092,854.155 821,844.5C 822.881,837.213 824.548,829.88 826,822.5C 828.618,817.549 832.284,813.549 837,810.5C 850.47,774.422 864.137,738.422 878,702.5C 889.213,675.813 884.713,652.313 864.5,632C 862.466,630.994 860.3,630.494 858,630.5C 853.341,631.053 848.841,632.22 844.5,634C 832.977,636.385 823.81,632.885 817,623.5C 810.651,610.062 813.485,598.896 825.5,590C 828.324,587.921 831.324,586.421 834.5,585.5 Z"/></g>
<g><path style="opacity:1" fill="#209ed9" d="M 1151.5,635.5 C 1190.1,632.202 1216.26,648.535 1230,684.5C 1237.46,721.417 1224.62,748.584 1191.5,766C 1156.32,778.311 1127.82,769.478 1106,739.5C 1090.17,710.004 1092.83,682.337 1114,656.5C 1124.76,646.21 1137.26,639.21 1151.5,635.5 Z"/></g>
<g><path style="opacity:1" fill="#209ed9" d="M 1031.5,786.5 C 1039.89,786.213 1048.22,786.713 1056.5,788C 1091.37,801.131 1126.37,813.798 1161.5,826C 1169.05,829.21 1173.05,834.876 1173.5,843C 1165.94,939.367 1121.94,1013.53 1041.5,1065.5C 961.266,1014.43 917.266,941.101 909.5,845.5C 908.898,836.532 912.565,830.032 920.5,826C 957.592,812.773 994.592,799.606 1031.5,786.5 Z"/></g>
<g><path style="opacity:1" fill="#f9f9f9" d="M 1022.5,992.5 C 1022.5,975.167 1022.5,957.833 1022.5,940.5C 1005.17,940.5 987.833,940.5 970.5,940.5C 970.5,927.833 970.5,915.167 970.5,902.5C 987.5,902.5 1004.5,902.5 1021.5,902.5C 1021.5,885.167 1021.5,867.833 1021.5,850.5C 1034.5,850.5 1047.5,850.5 1060.5,850.5C 1060.5,867.833 1060.5,885.167 1060.5,902.5C 1077.83,902.5 1095.17,902.5 1112.5,902.5C 1112.5,915.167 1112.5,927.833 1112.5,940.5C 1095.17,940.5 1077.83,940.5 1060.5,940.5C 1060.5,957.833 1060.5,975.167 1060.5,992.5C 1047.83,992.5 1035.17,992.5 1022.5,992.5 Z"/></g>
<g><path style="opacity:1" fill="#62bae3" d="M 970.5,940.5 C 987.833,940.5 1005.17,940.5 1022.5,940.5C 1022.5,957.833 1022.5,975.167 1022.5,992.5C 1021.5,975.675 1021.17,958.675 1021.5,941.5C 1004.33,941.83 987.325,941.497 970.5,940.5 Z"/></g>
<g><path style="opacity:1" fill="#7e9bbe" d="M 1025.5,1278.5 C 1013.15,1278.77 1001.15,1279.77 989.5,1281.5C 989.5,1294.83 989.5,1308.17 989.5,1321.5C 981.333,1322.82 973.167,1322.82 965,1321.5C 964.832,1297.66 964.332,1274 963.5,1250.5C 963.183,1235.12 963.516,1219.79 964.5,1204.5C 983.825,1203.33 1003.16,1203.17 1022.5,1204C 1027.67,1207.83 1032.17,1212.33 1036,1217.5C 1036.67,1234.17 1036.67,1250.83 1036,1267.5C 1032.27,1271.06 1028.77,1274.73 1025.5,1278.5 Z"/></g>
<g><path style="opacity:1" fill="#7e9bbe" d="M 1132.5,1324.5 C 1124.5,1324.5 1116.5,1324.5 1108.5,1324.5C 1107.52,1315.33 1107.52,1306 1108.5,1296.5C 1109.49,1290.02 1109.82,1283.35 1109.5,1276.5C 1101.16,1276.33 1092.83,1276.5 1084.5,1277C 1083.59,1278.7 1083.26,1280.53 1083.5,1282.5C 1083.57,1296.19 1083.07,1309.85 1082,1323.5C 1074.25,1324.65 1066.41,1324.81 1058.5,1324C 1057.94,1323.62 1057.61,1323.12 1057.5,1322.5C 1058.07,1308.84 1058.41,1295.17 1058.5,1281.5C 1058.58,1256.14 1059.42,1230.81 1061,1205.5C 1069.08,1204.52 1077.25,1204.18 1085.5,1204.5C 1085.65,1219.85 1085.31,1235.18 1084.5,1250.5C 1093.15,1251.08 1101.82,1251.42 1110.5,1251.5C 1110.22,1236.47 1110.72,1221.47 1112,1206.5C 1120,1205.17 1128,1205.17 1136,1206.5C 1135.64,1245.91 1134.47,1285.24 1132.5,1324.5 Z"/></g>
<g><path style="opacity:1" fill="#7e9bbe" d="M 869.5,1207.5 C 872.518,1207.34 875.518,1207.5 878.5,1208C 879.108,1209.23 879.441,1210.56 879.5,1212C 872.148,1250.8 864.981,1289.63 858,1328.5C 857.5,1329 857,1329.5 856.5,1330C 847.846,1331 839.179,1331.33 830.5,1331C 817.489,1294.3 804.655,1257.47 792,1220.5C 791.333,1218.5 791.333,1216.5 792,1214.5C 800.301,1212.73 808.634,1212.4 817,1213.5C 824.34,1237.51 831.674,1261.51 839,1285.5C 843.462,1260.4 848.462,1235.4 854,1210.5C 859.213,1209.2 864.38,1208.2 869.5,1207.5 Z"/></g>
<g><path style="opacity:1" fill="#7e9bbe" d="M 1239.5,1327.5 C 1239.5,1328.83 1239.5,1330.17 1239.5,1331.5C 1231.39,1331.83 1223.39,1331.16 1215.5,1329.5C 1214.63,1325.14 1213.63,1320.8 1212.5,1316.5C 1212.59,1315.5 1212.25,1314.67 1211.5,1314C 1200.62,1313.56 1189.79,1312.72 1179,1311.5C 1177.97,1311.84 1177.47,1312.5 1177.5,1313.5C 1176.63,1317.69 1175.3,1321.69 1173.5,1325.5C 1165.21,1326.24 1156.88,1326.24 1148.5,1325.5C 1148.94,1320.67 1150.11,1316.01 1152,1311.5C 1164.53,1278.91 1176.86,1246.24 1189,1213.5C 1189.73,1211.26 1191.23,1209.93 1193.5,1209.5C 1200.14,1210.26 1206.8,1210.76 1213.5,1211C 1223.24,1249.5 1231.9,1288.34 1239.5,1327.5 Z"/></g>
<g><path style="opacity:1" fill="#7f9bbe" d="M 772.5,1215.5 C 777.675,1214.51 779.509,1216.51 778,1221.5C 769.431,1236.14 761.264,1250.97 753.5,1266C 765.951,1287.07 778.784,1307.9 792,1328.5C 793.301,1330.36 793.635,1332.36 793,1334.5C 784.906,1336.01 776.739,1337.35 768.5,1338.5C 767.833,1338.17 767.167,1337.83 766.5,1337.5C 757.496,1323.5 748.996,1309.16 741,1294.5C 740.311,1293.64 739.478,1292.98 738.5,1292.5C 735.059,1296.59 733.059,1301.26 732.5,1306.5C 734.035,1318.14 734.868,1329.81 735,1341.5C 727.28,1343.24 719.446,1344.08 711.5,1344C 706.258,1304.6 701.758,1265.1 698,1225.5C 705.928,1223.36 713.928,1222.69 722,1223.5C 723.929,1235.45 725.595,1247.45 727,1259.5C 734.359,1245.95 741.859,1232.45 749.5,1219C 757.326,1217.96 764.993,1216.79 772.5,1215.5 Z"/></g>
<g><path style="opacity:1" fill="#7e9bbe" d="M 1332.5,1342.5 C 1323.05,1341.82 1313.72,1340.49 1304.5,1338.5C 1300.73,1324.49 1296.9,1310.49 1293,1296.5C 1290.38,1295.01 1287.55,1294.34 1284.5,1294.5C 1283.57,1308.4 1281.9,1322.07 1279.5,1335.5C 1272.13,1335.54 1264.8,1335.04 1257.5,1334C 1256.96,1333.28 1256.29,1332.78 1255.5,1332.5C 1258.76,1294.08 1262.93,1255.75 1268,1217.5C 1269.91,1216.87 1271.91,1216.54 1274,1216.5C 1291.88,1218.3 1309.72,1220.47 1327.5,1223C 1331,1227.17 1334.5,1231.33 1338,1235.5C 1338.67,1239.83 1338.67,1244.17 1338,1248.5C 1336.26,1261.17 1334.59,1273.83 1333,1286.5C 1329.94,1290.06 1326.44,1293.06 1322.5,1295.5C 1322.17,1296.5 1321.83,1297.5 1321.5,1298.5C 1325.68,1313.07 1329.35,1327.74 1332.5,1342.5 Z"/></g>
<g><path style="opacity:1" fill="#7e9bbe" d="M 1403.5,1352.5 C 1397.1,1352.39 1390.77,1351.73 1384.5,1350.5C 1382.73,1335.75 1380.57,1321.08 1378,1306.5C 1375.8,1320.03 1373.3,1333.36 1370.5,1346.5C 1369.09,1347.06 1367.59,1347.39 1366,1347.5C 1359.5,1346.44 1353,1345.44 1346.5,1344.5C 1346.51,1339.78 1347.01,1335.12 1348,1330.5C 1354.88,1296.49 1361.71,1262.49 1368.5,1228.5C 1377.18,1228.87 1385.68,1230.2 1394,1232.5C 1396.33,1258.14 1398.33,1283.8 1400,1309.5C 1400.87,1304.23 1402.53,1299.23 1405,1294.5C 1413.61,1276.29 1421.94,1257.95 1430,1239.5C 1431.4,1238.88 1432.9,1238.55 1434.5,1238.5C 1441.5,1239.58 1448.5,1240.58 1455.5,1241.5C 1451.93,1281.02 1447.26,1320.35 1441.5,1359.5C 1440,1359.83 1438.5,1360.17 1437,1360.5C 1431.16,1359.72 1425.33,1358.89 1419.5,1358C 1419,1357.5 1418.5,1357 1418,1356.5C 1419.01,1342.79 1420.34,1329.12 1422,1315.5C 1415.89,1328.09 1409.72,1340.42 1403.5,1352.5 Z"/></g>
<g><path style="opacity:1" fill="#7e9bbe" d="M 690.5,1340.5 C 690.859,1342.77 690.192,1344.6 688.5,1346C 681.247,1347.6 673.914,1348.43 666.5,1348.5C 664.073,1335.86 661.573,1323.2 659,1310.5C 656.537,1324.45 654.203,1338.45 652,1352.5C 651.5,1353 651,1353.5 650.5,1354C 645.84,1354.88 641.173,1355.71 636.5,1356.5C 634.971,1356.47 633.804,1355.8 633,1354.5C 627.288,1342.08 621.288,1329.74 615,1317.5C 616.443,1331.16 617.777,1344.83 619,1358.5C 611.132,1361.15 603.132,1362.15 595,1361.5C 590.36,1323.13 585.526,1284.8 580.5,1246.5C 580.709,1245.01 581.376,1243.84 582.5,1243C 589.343,1241.89 596.176,1240.72 603,1239.5C 604.711,1239.44 606.044,1240.11 607,1241.5C 616.339,1264.84 625.673,1288.18 635,1311.5C 637.003,1286.14 639.337,1260.81 642,1235.5C 642.374,1234.58 642.874,1233.75 643.5,1233C 651.427,1231.12 659.427,1230.12 667.5,1230C 675.714,1266.69 683.381,1303.53 690.5,1340.5 Z"/></g>
<g><path style="opacity:1" fill="#f7f7f8" d="M 1007.5,1253.5 C 1001.5,1253.5 995.5,1253.5 989.5,1253.5C 989.5,1246.17 989.5,1238.83 989.5,1231.5C 995.319,1230.35 1001.32,1230.18 1007.5,1231C 1008.33,1231.83 1009.17,1232.67 1010,1233.5C 1010.67,1239.5 1010.67,1245.5 1010,1251.5C 1009.29,1252.38 1008.46,1253.05 1007.5,1253.5 Z"/></g>
<g><path style="opacity:1" fill="#a2a5be" d="M 1311.5,1249.5 C 1310.71,1249.22 1310.04,1248.72 1309.5,1248C 1303.16,1247.13 1296.82,1246.3 1290.5,1245.5C 1290.62,1244.41 1291.29,1243.75 1292.5,1243.5C 1298.13,1244.57 1303.8,1245.4 1309.5,1246C 1310.82,1246.82 1311.49,1247.98 1311.5,1249.5 Z"/></g>
<g><path style="opacity:1" fill="#f7f7f8" d="M 1290.5,1245.5 C 1296.82,1246.3 1303.16,1247.13 1309.5,1248C 1310.04,1248.72 1310.71,1249.22 1311.5,1249.5C 1311.13,1255.17 1310.63,1260.84 1310,1266.5C 1309.17,1267.33 1308.33,1268.17 1307.5,1269C 1301.15,1269.52 1294.82,1269.36 1288.5,1268.5C 1289.08,1260.83 1289.75,1253.16 1290.5,1245.5 Z"/></g>
<g><path style="opacity:1" fill="#7e9cbe" d="M 564.5,1367.5 C 548.326,1370.77 532.16,1374.1 516,1377.5C 510.377,1374.71 504.877,1371.71 499.5,1368.5C 497.039,1359.57 495.039,1350.41 493.5,1341C 493.585,1339.89 493.919,1338.89 494.5,1338C 501.943,1335.24 509.61,1333.91 517.5,1334C 518.871,1338.04 519.871,1342.21 520.5,1346.5C 520.818,1347.65 521.484,1348.48 522.5,1349C 529.866,1349.08 537.033,1347.91 544,1345.5C 544.667,1342.17 544.667,1338.83 544,1335.5C 538.501,1309.34 533.001,1283.17 527.5,1257C 527.585,1255.89 527.919,1254.89 528.5,1254C 535.139,1252.4 541.806,1250.9 548.5,1249.5C 551.766,1249.45 553.266,1251.12 553,1254.5C 559.333,1284.83 565.667,1315.17 572,1345.5C 572.767,1349.59 572.434,1353.59 571,1357.5C 568.574,1360.69 566.407,1364.02 564.5,1367.5 Z"/></g>
<g><path style="opacity:1" fill="#ccd5e2" d="M 989.5,1231.5 C 989.5,1238.83 989.5,1246.17 989.5,1253.5C 995.5,1253.5 1001.5,1253.5 1007.5,1253.5C 1001.36,1254.49 995.022,1254.82 988.5,1254.5C 988.175,1246.65 988.508,1238.98 989.5,1231.5 Z"/></g>
<g><path style="opacity:1" fill="#7e9bbe" d="M 1519.5,1361.5 C 1519.59,1360.5 1519.25,1359.67 1518.5,1359C 1508.54,1356.64 1498.54,1354.47 1488.5,1352.5C 1486.97,1352.64 1485.97,1353.31 1485.5,1354.5C 1483.26,1357.97 1481.26,1361.64 1479.5,1365.5C 1470.95,1365.46 1462.61,1364.12 1454.5,1361.5C 1455.76,1356.97 1457.6,1352.63 1460,1348.5C 1476.92,1317.66 1493.59,1286.66 1510,1255.5C 1511.3,1254.02 1512.97,1253.35 1515,1253.5C 1522.01,1254.18 1528.68,1255.85 1535,1258.5C 1538.35,1298.19 1541.85,1337.85 1545.5,1377.5C 1545.17,1380.36 1543.51,1381.69 1540.5,1381.5C 1534.44,1380.65 1528.44,1379.49 1522.5,1378C 1522,1377.5 1521.5,1377 1521,1376.5C 1520.09,1371.54 1519.59,1366.54 1519.5,1361.5 Z"/></g>
<g><path style="opacity:1" fill="#f4f4f6" d="M 1198.5,1258.5 C 1199.69,1258.97 1200.36,1259.97 1200.5,1261.5C 1202.61,1271.15 1204.61,1280.82 1206.5,1290.5C 1200.18,1289.89 1193.85,1289.56 1187.5,1289.5C 1190.91,1279.03 1194.57,1268.7 1198.5,1258.5 Z"/></g>
<g><path style="opacity:1" fill="#abacc3" d="M 1025.5,1278.5 C 1024.94,1279.79 1023.94,1280.62 1022.5,1281C 1011.51,1281.5 1000.51,1281.67 989.5,1281.5C 1001.15,1279.77 1013.15,1278.77 1025.5,1278.5 Z"/></g>
<g><path style="opacity:1" fill="#a8b2c9" d="M 963.5,1250.5 C 964.332,1274 964.832,1297.66 965,1321.5C 973.167,1322.82 981.333,1322.82 989.5,1321.5C 989.586,1322.5 989.252,1323.33 988.5,1324C 980.833,1324.67 973.167,1324.67 965.5,1324C 965,1323.5 964.5,1323 964,1322.5C 963.5,1298.5 963.333,1274.5 963.5,1250.5 Z"/></g>
<g><path style="opacity:1" fill="#a6afc6" d="M 1108.5,1296.5 C 1108.5,1290.5 1108.5,1284.5 1108.5,1278.5C 1100.5,1278.5 1092.5,1278.5 1084.5,1278.5C 1084.77,1280.1 1084.43,1281.43 1083.5,1282.5C 1083.26,1280.53 1083.59,1278.7 1084.5,1277C 1092.83,1276.5 1101.16,1276.33 1109.5,1276.5C 1109.82,1283.35 1109.49,1290.02 1108.5,1296.5 Z"/></g>
<g><path style="opacity:1" fill="#f5f5f6" d="M 1513.5,1301.5 C 1515.39,1312.27 1516.39,1323.27 1516.5,1334.5C 1510.46,1333.76 1504.46,1332.76 1498.5,1331.5C 1502.95,1321.26 1507.95,1311.26 1513.5,1301.5 Z"/></g>
<g><path style="opacity:1" fill="#a6a9c0" d="M 1212.5,1316.5 C 1200.85,1315.68 1189.18,1314.68 1177.5,1313.5C 1177.47,1312.5 1177.97,1311.84 1179,1311.5C 1189.79,1312.72 1200.62,1313.56 1211.5,1314C 1212.25,1314.67 1212.59,1315.5 1212.5,1316.5 Z"/></g>
<g><path style="opacity:1" fill="#cad2df" d="M 1058.5,1281.5 C 1058.41,1295.17 1058.07,1308.84 1057.5,1322.5C 1056.84,1319.52 1056.5,1316.35 1056.5,1313C 1056.88,1302.33 1057.55,1291.83 1058.5,1281.5 Z"/></g>
<g><path style="opacity:1" fill="#a8a9c0" d="M 1108.5,1324.5 C 1116.5,1324.5 1124.5,1324.5 1132.5,1324.5C 1129.06,1325.82 1125.23,1326.49 1121,1326.5C 1117.17,1326.33 1113.33,1326.17 1109.5,1326C 1108.94,1325.62 1108.61,1325.12 1108.5,1324.5 Z"/></g>
<g><path style="opacity:1" fill="#a1a3bd" d="M 1148.5,1325.5 C 1156.88,1326.24 1165.21,1326.24 1173.5,1325.5C 1173.05,1326.46 1172.38,1327.29 1171.5,1328C 1165.15,1328.65 1158.82,1328.49 1152.5,1327.5C 1150.67,1327.41 1149.33,1326.75 1148.5,1325.5 Z"/></g>
<g><path style="opacity:1" fill="#a2a5bd" d="M 1239.5,1327.5 C 1240.81,1329.22 1240.81,1331.06 1239.5,1333C 1231.8,1333.64 1224.13,1333.31 1216.5,1332C 1215.75,1331.33 1215.41,1330.5 1215.5,1329.5C 1223.39,1331.16 1231.39,1331.83 1239.5,1331.5C 1239.5,1330.17 1239.5,1328.83 1239.5,1327.5 Z"/></g>
<g><path style="opacity:1" fill="#a4a6be" d="M 1255.5,1332.5 C 1256.29,1332.78 1256.96,1333.28 1257.5,1334C 1264.8,1335.04 1272.13,1335.54 1279.5,1335.5C 1277.78,1336.8 1275.61,1337.47 1273,1337.5C 1267.82,1337.15 1262.65,1336.65 1257.5,1336C 1256.18,1335.18 1255.51,1334.02 1255.5,1332.5 Z"/></g>
<g><path style="opacity:1" fill="#a4a6be" d="M 1304.5,1338.5 C 1313.72,1340.49 1323.05,1341.82 1332.5,1342.5C 1332.03,1343.69 1331.03,1344.36 1329.5,1344.5C 1321.8,1343.55 1314.13,1342.38 1306.5,1341C 1305.62,1340.29 1304.95,1339.46 1304.5,1338.5 Z"/></g>
<g><path style="opacity:1" fill="#a4a6be" d="M 1346.5,1344.5 C 1353,1345.44 1359.5,1346.44 1366,1347.5C 1367.59,1347.39 1369.09,1347.06 1370.5,1346.5C 1370.13,1348.95 1368.63,1349.95 1366,1349.5C 1359.8,1348.49 1353.63,1347.33 1347.5,1346C 1346.94,1345.62 1346.61,1345.12 1346.5,1344.5 Z"/></g>
<g><path style="opacity:1" fill="#a2a4bd" d="M 690.5,1340.5 C 691.622,1342.29 691.789,1344.29 691,1346.5C 684.355,1348.44 677.522,1349.77 670.5,1350.5C 668.667,1350.41 667.334,1349.75 666.5,1348.5C 673.914,1348.43 681.247,1347.6 688.5,1346C 690.192,1344.6 690.859,1342.77 690.5,1340.5 Z"/></g>
<g><path style="opacity:1" fill="#a4a5be" d="M 1384.5,1350.5 C 1390.77,1351.73 1397.1,1352.39 1403.5,1352.5C 1403.39,1353.12 1403.06,1353.62 1402.5,1354C 1397.46,1354.55 1392.46,1354.22 1387.5,1353C 1386.06,1352.62 1385.06,1351.79 1384.5,1350.5 Z"/></g>
<g><path style="opacity:1" fill="#a3a5be" d="M 1519.5,1361.5 C 1508.29,1358.74 1496.96,1356.41 1485.5,1354.5C 1485.97,1353.31 1486.97,1352.64 1488.5,1352.5C 1498.54,1354.47 1508.54,1356.64 1518.5,1359C 1519.25,1359.67 1519.59,1360.5 1519.5,1361.5 Z"/></g>
<g><path style="opacity:1" fill="#a4a7bf" d="M 1454.5,1361.5 C 1462.61,1364.12 1470.95,1365.46 1479.5,1365.5C 1478.75,1367.25 1477.42,1368.25 1475.5,1368.5C 1468.91,1366.68 1462.24,1365.18 1455.5,1364C 1454.75,1363.33 1454.41,1362.5 1454.5,1361.5 Z"/></g>
<g><path style="opacity:1" fill="#9ea1bb" d="M 564.5,1367.5 C 563.942,1368.79 562.942,1369.62 561.5,1370C 546.351,1373.22 531.185,1376.39 516,1379.5C 513.181,1379.01 510.681,1377.84 508.5,1376C 505.06,1373.96 502.06,1371.46 499.5,1368.5C 504.877,1371.71 510.377,1374.71 516,1377.5C 532.16,1374.1 548.326,1370.77 564.5,1367.5 Z"/></g>
<g><path style="opacity:1" fill="#819cbe" d="M 627.5,1390.5 C 637.5,1390.5 647.5,1390.5 657.5,1390.5C 657.5,1393.83 657.5,1397.17 657.5,1400.5C 654.167,1400.5 650.833,1400.5 647.5,1400.5C 647.667,1411.51 647.5,1422.51 647,1433.5C 644.196,1435.34 641.03,1436.01 637.5,1435.5C 637.5,1423.83 637.5,1412.17 637.5,1400.5C 634.167,1400.5 630.833,1400.5 627.5,1400.5C 627.5,1397.17 627.5,1393.83 627.5,1390.5 Z"/></g>
<g><path style="opacity:1" fill="#819cbe" d="M 676.5,1390.5 C 682.509,1390.33 688.509,1390.5 694.5,1391C 704.024,1393.54 707.857,1399.7 706,1409.5C 704.938,1413.81 702.771,1417.31 699.5,1420C 701.869,1423.9 704.369,1427.74 707,1431.5C 707.49,1432.79 707.657,1434.13 707.5,1435.5C 704.15,1435.67 700.817,1435.5 697.5,1435C 694.636,1430.97 691.969,1426.8 689.5,1422.5C 688.675,1421.61 687.675,1421.28 686.5,1421.5C 686.772,1425.9 686.439,1430.24 685.5,1434.5C 682.572,1435.48 679.572,1435.82 676.5,1435.5C 676.5,1420.5 676.5,1405.5 676.5,1390.5 Z"/></g>
<g><path style="opacity:1" fill="#809dbf" d="M 755.5,1430.5 C 751.287,1432.74 746.787,1434.07 742,1434.5C 735.963,1434.4 731.13,1432.06 727.5,1427.5C 726.815,1425.59 726.315,1423.59 726,1421.5C 725.5,1411.17 725.334,1400.84 725.5,1390.5C 728.833,1390.5 732.167,1390.5 735.5,1390.5C 735.334,1400.51 735.5,1410.51 736,1420.5C 737.018,1423.68 739.185,1425.02 742.5,1424.5C 745.815,1425.02 747.982,1423.68 749,1420.5C 749.5,1410.51 749.666,1400.51 749.5,1390.5C 752.833,1390.5 756.167,1390.5 759.5,1390.5C 759.666,1400.51 759.5,1410.51 759,1420.5C 758.321,1424.04 757.154,1427.37 755.5,1430.5 Z"/></g>
<g><path style="opacity:1" fill="#849dbe" d="M 787.5,1389.5 C 795.478,1388.17 801.811,1390.67 806.5,1397C 805.421,1399.16 804.087,1401.16 802.5,1403C 799.472,1402.22 796.305,1401.39 793,1400.5C 788.052,1401.4 787.552,1403.23 791.5,1406C 798.006,1407.66 803.173,1411.16 807,1416.5C 809.488,1426.44 805.988,1432.94 796.5,1436C 788.327,1437.67 781.994,1435.17 777.5,1428.5C 778.804,1425.7 780.638,1423.37 783,1421.5C 785.869,1423.52 789.036,1424.85 792.5,1425.5C 796.709,1425.56 798.042,1423.72 796.5,1420C 789.895,1418.12 784.395,1414.62 780,1409.5C 777.308,1400.62 779.808,1393.95 787.5,1389.5 Z"/></g>
<g><path style="opacity:1" fill="#829cbe" d="M 823.5,1390.5 C 833.5,1390.5 843.5,1390.5 853.5,1390.5C 853.5,1393.83 853.5,1397.17 853.5,1400.5C 850.167,1400.5 846.833,1400.5 843.5,1400.5C 843.5,1412.17 843.5,1423.83 843.5,1435.5C 839.97,1436.01 836.804,1435.34 834,1433.5C 833.5,1422.51 833.333,1411.51 833.5,1400.5C 830.167,1400.5 826.833,1400.5 823.5,1400.5C 823.5,1397.17 823.5,1393.83 823.5,1390.5 Z"/></g>
<g><path style="opacity:1" fill="#839cbe" d="M 872.5,1390.5 C 880.833,1390.5 889.167,1390.5 897.5,1390.5C 897.5,1393.83 897.5,1397.17 897.5,1400.5C 892.5,1400.5 887.5,1400.5 882.5,1400.5C 882.5,1402.83 882.5,1405.17 882.5,1407.5C 887.5,1407.5 892.5,1407.5 897.5,1407.5C 897.5,1410.83 897.5,1414.17 897.5,1417.5C 892.5,1417.5 887.5,1417.5 882.5,1417.5C 882.5,1420.17 882.5,1422.83 882.5,1425.5C 887.833,1425.5 893.167,1425.5 898.5,1425.5C 898.784,1428.78 898.451,1431.94 897.5,1435C 889.479,1435.83 881.479,1435.66 873.5,1434.5C 872.517,1419.88 872.183,1405.22 872.5,1390.5 Z"/></g>
<g><path style="opacity:1" fill="#819dbf" d="M 951.5,1425.5 C 949.114,1426.37 947.114,1427.87 945.5,1430C 942.911,1431.2 940.244,1432.2 937.5,1433C 931.175,1433.5 924.842,1433.67 918.5,1433.5C 917.17,1419.43 917.17,1405.26 918.5,1391C 925.167,1390.33 931.833,1390.33 938.5,1391C 948.763,1394.26 954.097,1401.26 954.5,1412C 954.444,1416.79 953.444,1421.29 951.5,1425.5 Z"/></g>
<g><path style="opacity:1" fill="#819cbe" d="M 1001.5,1390.5 C 1011.5,1390.5 1021.5,1390.5 1031.5,1390.5C 1031.5,1393.83 1031.5,1397.17 1031.5,1400.5C 1028.17,1400.5 1024.83,1400.5 1021.5,1400.5C 1021.67,1411.51 1021.5,1422.51 1021,1433.5C 1018.2,1435.34 1015.03,1436.01 1011.5,1435.5C 1011.5,1423.83 1011.5,1412.17 1011.5,1400.5C 1008.17,1400.5 1004.83,1400.5 1001.5,1400.5C 1001.5,1397.17 1001.5,1393.83 1001.5,1390.5 Z"/></g>
<g><path style="opacity:1" fill="#829cbe" d="M 1062.5,1389.5 C 1081.85,1389.53 1090.69,1399.2 1089,1418.5C 1083.07,1435.21 1071.91,1440.04 1055.5,1433C 1044.79,1423.65 1042.63,1412.48 1049,1399.5C 1052.56,1394.76 1057.06,1391.43 1062.5,1389.5 Z"/></g>
<g><path style="opacity:1" fill="#819cbe" d="M 1174.5,1428.5 C 1162.28,1437.14 1150.94,1436.14 1140.5,1425.5C 1133.77,1410.98 1137.1,1399.48 1150.5,1391C 1159.26,1387.97 1167.1,1389.47 1174,1395.5C 1174.18,1399.37 1172.51,1402.37 1169,1404.5C 1160.57,1398.29 1153.57,1399.63 1148,1408.5C 1146.08,1418.08 1149.91,1423.74 1159.5,1425.5C 1162.96,1424.85 1166.13,1423.52 1169,1421.5C 1171.43,1423.42 1173.26,1425.75 1174.5,1428.5 Z"/></g>
<g><path style="opacity:1" fill="#829dbe" d="M 1205.5,1390.5 C 1208.78,1390.22 1211.94,1390.55 1215,1391.5C 1220.72,1405.92 1225.55,1420.59 1229.5,1435.5C 1226.17,1435.5 1222.83,1435.5 1219.5,1435.5C 1219.33,1433.14 1218.99,1430.81 1218.5,1428.5C 1212.83,1428.5 1207.17,1428.5 1201.5,1428.5C 1201.33,1430.86 1200.99,1433.19 1200.5,1435.5C 1197.17,1435.5 1193.83,1435.5 1190.5,1435.5C 1194.89,1420.32 1199.89,1405.32 1205.5,1390.5 Z"/></g>
<g><path style="opacity:1" fill="#829cbe" d="M 1247.5,1390.5 C 1253.84,1390.33 1260.18,1390.5 1266.5,1391C 1276.1,1394.03 1279.6,1400.53 1277,1410.5C 1276.23,1414.45 1274.06,1417.45 1270.5,1419.5C 1274.26,1424.36 1276.93,1429.69 1278.5,1435.5C 1275.1,1435.82 1271.77,1435.49 1268.5,1434.5C 1266.2,1430.37 1263.7,1426.37 1261,1422.5C 1259.99,1421.66 1258.82,1421.33 1257.5,1421.5C 1257.5,1426.17 1257.5,1430.83 1257.5,1435.5C 1253.97,1436.01 1250.8,1435.34 1248,1433.5C 1247.5,1419.17 1247.33,1404.84 1247.5,1390.5 Z"/></g>
<g><path style="opacity:1" fill="#849dbe" d="M 1321.5,1417.5 C 1316.83,1417.5 1312.17,1417.5 1307.5,1417.5C 1307.5,1420.17 1307.5,1422.83 1307.5,1425.5C 1312.5,1425.5 1317.5,1425.5 1322.5,1425.5C 1323.48,1428.62 1323.81,1431.96 1323.5,1435.5C 1315.14,1435.83 1306.81,1435.5 1298.5,1434.5C 1297.17,1419.97 1297.17,1405.47 1298.5,1391C 1306.83,1390.5 1315.16,1390.33 1323.5,1390.5C 1323.5,1393.83 1323.5,1397.17 1323.5,1400.5C 1318.17,1400.5 1312.83,1400.5 1307.5,1400.5C 1307.5,1402.83 1307.5,1405.17 1307.5,1407.5C 1312.5,1407.5 1317.5,1407.5 1322.5,1407.5C 1322.81,1411.04 1322.48,1414.38 1321.5,1417.5 Z"/></g>
<g><path style="opacity:1" fill="#a5abc3" d="M 696.5,1406.5 C 696.703,1404.61 696.037,1403.11 694.5,1402C 691.854,1401.5 689.187,1401.34 686.5,1401.5C 686.5,1404.5 686.5,1407.5 686.5,1410.5C 685.18,1407.1 685.18,1403.6 686.5,1400C 690.591,1398.77 694.091,1399.61 697,1402.5C 697.765,1404.07 697.598,1405.4 696.5,1406.5 Z"/></g>
<g><path style="opacity:1" fill="#f8f8f9" d="M 696.5,1406.5 C 696.586,1407.5 696.252,1408.33 695.5,1409C 692.607,1410.15 689.607,1410.65 686.5,1410.5C 686.5,1407.5 686.5,1404.5 686.5,1401.5C 689.187,1401.34 691.854,1401.5 694.5,1402C 696.037,1403.11 696.703,1404.61 696.5,1406.5 Z"/></g>
<g><path style="opacity:1" fill="#c9d0de" d="M 934.5,1401.5 C 932.5,1401.5 930.5,1401.5 928.5,1401.5C 928.5,1409.17 928.5,1416.83 928.5,1424.5C 930.833,1424.5 933.167,1424.5 935.5,1424.5C 933.052,1425.47 930.385,1425.81 927.5,1425.5C 927.5,1417.17 927.5,1408.83 927.5,1400.5C 930.059,1400.2 932.393,1400.53 934.5,1401.5 Z"/></g>
<g><path style="opacity:1" fill="#f8f8f9" d="M 934.5,1401.5 C 941.258,1402 944.591,1405.67 944.5,1412.5C 944.854,1419.16 941.854,1423.16 935.5,1424.5C 933.167,1424.5 930.833,1424.5 928.5,1424.5C 928.5,1416.83 928.5,1409.17 928.5,1401.5C 930.5,1401.5 932.5,1401.5 934.5,1401.5 Z"/></g>
<g><path style="opacity:1" fill="#f7f7f8" d="M 1064.5,1400.5 C 1077.98,1401.46 1082.15,1408.13 1077,1420.5C 1068.37,1428 1061.37,1426.67 1056,1416.5C 1054.37,1408.75 1057.21,1403.42 1064.5,1400.5 Z"/></g>
<g><path style="opacity:1" fill="#f4f4f6" d="M 1257.5,1400.5 C 1259.86,1400.34 1262.19,1400.5 1264.5,1401C 1269.83,1404 1269.83,1407 1264.5,1410C 1262.19,1410.5 1259.86,1410.66 1257.5,1410.5C 1257.5,1407.17 1257.5,1403.83 1257.5,1400.5 Z"/></g>
<g><path style="opacity:1" fill="#eff0f2" d="M 1209.5,1405.5 C 1211.53,1409.24 1213.2,1413.24 1214.5,1417.5C 1211.5,1418.83 1208.5,1418.83 1205.5,1417.5C 1207.04,1413.55 1208.37,1409.55 1209.5,1405.5 Z"/></g>
<g><path style="opacity:1" fill="#c7cfde" d="M 1321.5,1417.5 C 1317.37,1418.48 1313.03,1418.82 1308.5,1418.5C 1308.5,1420.5 1308.5,1422.5 1308.5,1424.5C 1313.36,1424.18 1318.03,1424.51 1322.5,1425.5C 1317.5,1425.5 1312.5,1425.5 1307.5,1425.5C 1307.5,1422.83 1307.5,1420.17 1307.5,1417.5C 1312.17,1417.5 1316.83,1417.5 1321.5,1417.5 Z"/></g>
<g><path style="opacity:1" fill="#889fbf" d="M 1344.5,1424.5 C 1347.04,1424.1 1349.21,1424.77 1351,1426.5C 1352,1429.99 1351.5,1433.16 1349.5,1436C 1346.97,1436.9 1344.81,1436.4 1343,1434.5C 1342.04,1430.85 1342.54,1427.52 1344.5,1424.5 Z"/></g>
<g><path style="opacity:1" fill="#889fbf" d="M 1372.5,1424.5 C 1379.03,1424.24 1381.2,1427.24 1379,1433.5C 1376.05,1437.48 1373.05,1437.48 1370,1433.5C 1368.93,1429.9 1369.76,1426.9 1372.5,1424.5 Z"/></g>
<g><path style="opacity:1" fill="#889fbf" d="M 1399.5,1424.5 C 1405.82,1424.32 1408.32,1427.32 1407,1433.5C 1403.95,1437.48 1400.95,1437.48 1398,1433.5C 1397.07,1430.18 1397.57,1427.18 1399.5,1424.5 Z"/></g>
<g><path style="opacity:1" fill="#a1a2bb" d="M 951.5,1425.5 C 945.779,1433.08 938.112,1436.41 928.5,1435.5C 924.761,1435.49 921.428,1434.82 918.5,1433.5C 924.842,1433.67 931.175,1433.5 937.5,1433C 940.244,1432.2 942.911,1431.2 945.5,1430C 947.114,1427.87 949.114,1426.37 951.5,1425.5 Z"/></g>
<g><path style="opacity:1" fill="#a3a6be" d="M 727.5,1427.5 C 731.13,1432.06 735.963,1434.4 742,1434.5C 746.787,1434.07 751.287,1432.74 755.5,1430.5C 748.757,1436.94 741.091,1438.11 732.5,1434C 730.235,1432.24 728.568,1430.08 727.5,1427.5 Z"/></g>
<g><path style="opacity:1" fill="#a4a6be" d="M 1140.5,1425.5 C 1150.94,1436.14 1162.28,1437.14 1174.5,1428.5C 1174.14,1430.37 1173.14,1431.87 1171.5,1433C 1158.78,1439.61 1148.45,1437.11 1140.5,1425.5 Z"/></g>
</svg>
