<?xml version="1.0" encoding="UTF-8"?>
<!DOCTYPE svg PUBLIC "-//W3C//DTD SVG 1.1//EN" "http://www.w3.org/Graphics/SVG/1.1/DTD/svg11.dtd">
<svg xmlns="http://www.w3.org/2000/svg" viewBox="0 0 1024 1024" version="1.1" width="1024px" height="1024px" style="shape-rendering:geometricPrecision; text-rendering:geometricPrecision; image-rendering:optimizeQuality; fill-rule:evenodd; clip-rule:evenodd" xmlns:xlink="http://www.w3.org/1999/xlink">
<g><path style="opacity:1" fill="#fefefe" d="M -0.5,-0.5 C 340.833,-0.5 682.167,-0.5 1023.5,-0.5C 1023.5,340.833 1023.5,682.167 1023.5,1023.5C 682.167,1023.5 340.833,1023.5 -0.5,1023.5C -0.5,682.167 -0.5,340.833 -0.5,-0.5 Z"/></g>
<g><path style="opacity:1" fill="#04a2e2" d="M 576.5,317.5 C 596.467,317.217 609.3,326.55 615,345.5C 616.501,364.993 608.001,377.826 589.5,384C 559.667,386.167 545.833,372.333 548,342.5C 552.728,328.598 562.228,320.265 576.5,317.5 Z"/></g>
<g><path style="opacity:1" fill="#484e59" d="M 645.5,443.5 C 644.671,450.833 644.004,458.333 643.5,466C 643.508,467.707 643.842,469.207 644.5,470.5C 633.181,530.32 597.847,567.154 538.5,581C 490.176,588.115 449.343,573.949 416,538.5C 397.521,516.192 386.687,490.525 383.5,461.5C 365.946,454.771 355.446,442.105 352,423.5C 351.005,418.547 350.338,413.547 350,408.5C 342.59,387.604 335.59,366.604 329,345.5C 327.386,312.784 342.886,295.618 375.5,294C 382.563,299.564 383.396,306.064 378,313.5C 375.598,315.693 372.764,317.026 369.5,317.5C 366.376,316.681 363.376,315.681 360.5,314.5C 358.209,314.622 356.209,315.455 354.5,317C 344.598,327.065 342.765,338.565 349,351.5C 355.333,369.167 361.667,386.833 368,404.5C 369.667,406.833 371.333,409.167 373,411.5C 374.66,421.318 378.827,429.818 385.5,437C 395.89,441.233 403.39,438.066 408,427.5C 409.869,422.228 411.535,416.894 413,411.5C 414.608,408.228 416.608,405.228 419,402.5C 426.599,383.369 433.599,364.036 440,344.5C 441.803,335.089 440.137,326.423 435,318.5C 431.034,313.722 426.534,313.222 421.5,317C 415.9,318.395 411.733,316.562 409,311.5C 405.634,298.197 410.801,292.363 424.5,294C 431.167,297.667 437.833,301.333 444.5,305C 452.462,310.41 457.295,317.91 459,327.5C 459.801,334.889 459.467,342.223 458,349.5C 450.863,369.244 443.53,388.911 436,408.5C 435.075,424.573 429.742,438.907 420,451.5C 416.015,454.993 411.682,457.993 407,460.5C 411.324,506.176 434.824,537.676 477.5,555C 524.715,568.906 565.215,558.073 599,522.5C 625.98,487.248 631.313,448.915 615,407.5C 612.673,402.175 609.84,397.175 606.5,392.5C 611.806,387.86 616.806,382.86 621.5,377.5C 636.004,397.001 644.004,419.001 645.5,443.5 Z"/></g>
<g><path style="opacity:1" fill="#03a1e2" d="M 513.5,393.5 C 518.913,393.229 524.246,393.729 529.5,395C 545.833,400.667 562.167,406.333 578.5,412C 583.893,414.105 586.56,418.105 586.5,424C 581.441,471.003 559.275,507.17 520,532.5C 479.026,506.25 457.359,468.583 455,419.5C 455.883,416.898 457.383,414.731 459.5,413C 477.636,406.568 495.636,400.068 513.5,393.5 Z"/></g>
<g><path style="opacity:1" fill="#fafdfd" d="M 556.5,470.5 C 547.833,470.5 539.167,470.5 530.5,470.5C 530.5,479.167 530.5,487.833 530.5,496.5C 523.833,496.5 517.167,496.5 510.5,496.5C 510.5,487.833 510.5,479.167 510.5,470.5C 502.16,470.666 493.827,470.5 485.5,470C 484.521,463.256 484.188,456.422 484.5,449.5C 493.167,449.5 501.833,449.5 510.5,449.5C 510.5,441.167 510.5,432.833 510.5,424.5C 517.167,424.5 523.833,424.5 530.5,424.5C 530.5,432.833 530.5,441.167 530.5,449.5C 538.84,449.334 547.173,449.5 555.5,450C 556.479,456.744 556.812,463.578 556.5,470.5 Z"/></g>
<g><path style="opacity:1" fill="#171e2c" d="M 645.5,443.5 C 645.599,452.521 645.266,461.521 644.5,470.5C 643.842,469.207 643.508,467.707 643.5,466C 644.004,458.333 644.671,450.833 645.5,443.5 Z"/></g>
<g><path style="opacity:1" fill="#008adb" d="M 556.5,470.5 C 548.35,471.493 540.017,471.826 531.5,471.5C 531.5,480.167 531.5,488.833 531.5,497.5C 524.313,497.825 517.313,497.491 510.5,496.5C 517.167,496.5 523.833,496.5 530.5,496.5C 530.5,487.833 530.5,479.167 530.5,470.5C 539.167,470.5 547.833,470.5 556.5,470.5 Z"/></g>
<g><path style="opacity:1" fill="#7ba0cc" d="M 606.5,606.5 C 610.182,606.335 613.848,606.501 617.5,607C 623.107,627.191 627.774,647.691 631.5,668.5C 627.116,668.826 622.783,668.492 618.5,667.5C 618.167,664.655 617.167,662.155 615.5,660C 610.167,659.333 604.833,659.333 599.5,660C 598.692,662.088 597.692,664.088 596.5,666C 592.577,666.793 588.744,666.626 585,665.5C 584.333,664.167 584.333,662.833 585,661.5C 591.881,643.02 599.047,624.686 606.5,606.5 Z"/></g>
<g><path style="opacity:1" fill="#7a9fcb" d="M 538.5,603.5 C 542.833,603.5 547.167,603.5 551.5,603.5C 551.518,611.851 551.185,620.184 550.5,628.5C 555.527,628.503 560.527,628.836 565.5,629.5C 565.482,621.149 565.815,612.816 566.5,604.5C 570.5,604.5 574.5,604.5 578.5,604.5C 578.062,624.844 577.396,645.177 576.5,665.5C 572.5,665.5 568.5,665.5 564.5,665.5C 564.5,657.5 564.5,649.5 564.5,641.5C 559.5,641.5 554.5,641.5 549.5,641.5C 549.666,648.841 549.5,656.174 549,663.5C 545.27,664.46 541.437,664.793 537.5,664.5C 537.446,644.159 537.779,623.825 538.5,603.5 Z"/></g>
<g><path style="opacity:1" fill="#f9fbfc" d="M 609.5,629.5 C 611.841,635.156 613.174,641.156 613.5,647.5C 610.15,647.665 606.817,647.498 603.5,647C 606.197,641.409 608.197,635.576 609.5,629.5 Z"/></g>
<g><path style="opacity:1" fill="#7aa0cb" d="M 695.5,616.5 C 700.183,616.186 704.683,616.852 709,618.5C 710.465,631.152 711.799,643.819 713,656.5C 718.333,645.167 723.667,633.833 729,622.5C 733.099,621.576 737.265,621.576 741.5,622.5C 739.331,642.522 736.997,662.522 734.5,682.5C 730.481,682.354 726.481,682.021 722.5,681.5C 722.898,674.439 723.398,667.439 724,660.5C 721,666.5 718,672.5 715,678.5C 711.927,679.617 708.76,679.784 705.5,679C 703.355,670.994 701.855,662.828 701,654.5C 699.667,661.833 698.333,669.167 697,676.5C 693.24,677.357 689.406,677.357 685.5,676.5C 688.188,656.395 691.521,636.395 695.5,616.5 Z"/></g>
<g><path style="opacity:1" fill="#7aa0cc" d="M 431.5,604.5 C 436.544,604.173 441.544,604.506 446.5,605.5C 441.038,612.929 435.705,620.429 430.5,628C 436.252,638.75 442.419,649.25 449,659.5C 450.009,661.025 450.509,662.692 450.5,664.5C 445.435,664.959 440.435,664.959 435.5,664.5C 430.918,656.334 426.085,648.334 421,640.5C 419.833,642.167 418.667,643.833 417.5,645.5C 418.464,652.442 418.797,659.442 418.5,666.5C 414.167,666.5 409.833,666.5 405.5,666.5C 405.248,646.48 404.748,626.48 404,606.5C 408,605.167 412,605.167 416,606.5C 416.333,612.833 416.667,619.167 417,625.5C 422.079,618.602 426.913,611.602 431.5,604.5 Z"/></g>
<g><path style="opacity:1" fill="#7ba0cc" d="M 646.5,609.5 C 656.49,610.665 666.49,611.832 676.5,613C 679.378,615.592 681.045,618.759 681.5,622.5C 680.807,630.57 679.64,638.57 678,646.5C 675.743,648.046 673.576,649.712 671.5,651.5C 673.833,658.833 676.167,666.167 678.5,673.5C 673.887,674.694 669.387,674.361 665,672.5C 662.469,665.239 660.135,657.906 658,650.5C 656.915,649.707 655.748,649.04 654.5,648.5C 652.843,656.077 651.843,663.744 651.5,671.5C 648.482,671.665 645.482,671.498 642.5,671C 640.427,670.882 639.093,669.882 638.5,668C 640.803,648.402 643.47,628.902 646.5,609.5 Z"/></g>
<g><path style="opacity:1" fill="#f8fafc" d="M 657.5,622.5 C 666.886,622.07 670.053,626.404 667,635.5C 663.762,637.757 660.262,638.09 656.5,636.5C 655.513,631.749 655.847,627.082 657.5,622.5 Z"/></g>
<g><path style="opacity:1" fill="#799fcb" d="M 489.5,603.5 C 500.172,603.333 510.839,603.5 521.5,604C 523.378,605.543 524.878,607.376 526,609.5C 526.667,618.167 526.667,626.833 526,635.5C 524.5,637 523,638.5 521.5,640C 515.175,640.5 508.842,640.666 502.5,640.5C 502.5,648.167 502.5,655.833 502.5,663.5C 498.167,663.5 493.833,663.5 489.5,663.5C 489.5,643.5 489.5,623.5 489.5,603.5 Z"/></g>
<g><path style="opacity:1" fill="#f9fbfd" d="M 502.5,614.5 C 513,612.838 516.334,617.005 512.5,627C 509.183,627.498 505.85,627.665 502.5,627.5C 502.5,623.167 502.5,618.833 502.5,614.5 Z"/></g>
<g><path style="opacity:1" fill="#7ba0cb" d="M 327.5,613.5 C 330.777,613.216 333.943,613.549 337,614.5C 340.696,633.814 344.196,653.147 347.5,672.5C 343.5,672.833 339.5,673.167 335.5,673.5C 334.486,666.777 333.153,660.11 331.5,653.5C 330.009,660.438 328.842,667.438 328,674.5C 325.393,675.27 322.727,675.937 320,676.5C 319.228,676.355 318.561,676.022 318,675.5C 314.922,669.009 311.588,662.675 308,656.5C 308.959,663.406 309.792,670.406 310.5,677.5C 306.548,678.272 302.548,678.605 298.5,678.5C 295.665,659.165 293.165,639.832 291,620.5C 295.24,618.51 299.574,618.177 304,619.5C 308.807,630.252 313.807,640.919 319,651.5C 320.741,639.497 322.407,627.497 324,615.5C 325.302,614.915 326.469,614.249 327.5,613.5 Z"/></g>
<g><path style="opacity:1" fill="#7ba0cc" d="M 271.5,622.5 C 273.833,622.5 276.167,622.5 278.5,622.5C 281.332,637.489 284.165,652.489 287,667.5C 288.007,672.111 287.34,676.445 285,680.5C 283.509,682.004 281.676,682.837 279.5,683C 271.838,684.734 264.172,686.067 256.5,687C 250.121,681.398 247.121,674.232 247.5,665.5C 251.443,664.514 255.443,663.848 259.5,663.5C 260.482,673.094 264.982,675.094 273,669.5C 270.95,654.193 268.783,638.86 266.5,623.5C 268.415,623.784 270.081,623.451 271.5,622.5 Z"/></g>
<g><path style="opacity:1" fill="#7aa0cc" d="M 381.5,607.5 C 385.5,607.5 389.5,607.5 393.5,607.5C 389.766,628.076 385.766,648.576 381.5,669C 376.913,669.799 372.413,669.632 368,668.5C 360.461,649.714 353.628,630.714 347.5,611.5C 351.861,610.577 356.194,610.577 360.5,611.5C 364.765,623.129 368.932,634.795 373,646.5C 375.647,635.644 377.647,624.644 379,613.5C 379.236,611.189 380.069,609.189 381.5,607.5 Z"/></g>
<g><path style="opacity:1" fill="#7a9fcc" d="M 769.5,628.5 C 773.794,628.577 777.961,629.244 782,630.5C 783.644,651.524 785.478,672.524 787.5,693.5C 783.78,693.436 780.114,692.936 776.5,692C 774.998,689.426 773.998,686.593 773.5,683.5C 767.949,681.688 762.282,680.855 756.5,681C 755.33,683.334 753.663,685.168 751.5,686.5C 748.18,685.703 744.846,685.036 741.5,684.5C 750.287,665.592 759.621,646.925 769.5,628.5 Z"/></g>
<g><path style="opacity:1" fill="#f8fafc" d="M 770.5,651.5 C 771.543,657.65 772.21,663.984 772.5,670.5C 768.987,670.693 765.654,670.026 762.5,668.5C 765.451,662.932 768.118,657.266 770.5,651.5 Z"/></g>
<g><path style="opacity:1" fill="#719bca" d="M 501.5,693.5 C 506.5,693.5 511.5,693.5 516.5,693.5C 516.5,695.167 516.5,696.833 516.5,698.5C 514.833,698.5 513.167,698.5 511.5,698.5C 511.5,704.167 511.5,709.833 511.5,715.5C 509.833,715.5 508.167,715.5 506.5,715.5C 506.5,709.833 506.5,704.167 506.5,698.5C 504.833,698.5 503.167,698.5 501.5,698.5C 501.5,696.833 501.5,695.167 501.5,693.5 Z"/></g>
<g><path style="opacity:1" fill="#82a7d1" d="M 323.5,715.5 C 323.666,709.824 323.499,704.157 323,698.5C 322.829,703.864 322.329,709.198 321.5,714.5C 320.833,709.015 320.167,703.681 319.5,698.5C 317.5,698.5 315.5,698.5 313.5,698.5C 313.5,696.833 313.5,695.167 313.5,693.5C 318.833,693.5 324.167,693.5 329.5,693.5C 329.5,695.167 329.5,696.833 329.5,698.5C 327.833,698.5 326.167,698.5 324.5,698.5C 324.822,704.358 324.489,710.025 323.5,715.5 Z"/></g>
<g><path style="opacity:1" fill="#7aa0cd" d="M 437.5,693.5 C 441.514,693.334 445.514,693.501 449.5,694C 450.38,695.356 450.714,696.856 450.5,698.5C 447.5,698.5 444.5,698.5 441.5,698.5C 441.5,699.833 441.5,701.167 441.5,702.5C 443.5,702.5 445.5,702.5 447.5,702.5C 447.5,703.833 447.5,705.167 447.5,706.5C 445.5,706.5 443.5,706.5 441.5,706.5C 441.5,708.167 441.5,709.833 441.5,711.5C 444.5,711.5 447.5,711.5 450.5,711.5C 450.5,712.833 450.5,714.167 450.5,715.5C 445.833,715.5 441.167,715.5 436.5,715.5C 436.203,708.08 436.536,700.746 437.5,693.5 Z"/></g>
<g><path style="opacity:1" fill="#749dcb" d="M 624.5,693.5 C 627.85,693.335 631.183,693.502 634.5,694C 640.759,698.167 641.092,702.833 635.5,708C 637.167,710.333 638.833,712.667 640.5,715C 638.421,715.808 636.421,715.641 634.5,714.5C 633,712.167 631.5,709.833 630,707.5C 629.503,710.146 629.336,712.813 629.5,715.5C 627.833,715.5 626.167,715.5 624.5,715.5C 624.5,708.167 624.5,700.833 624.5,693.5 Z"/></g>
<g><path style="opacity:1" fill="#fdfefe" d="M 629.5,698.5 C 633.676,697.831 635.009,699.331 633.5,703C 632.207,703.49 630.873,703.657 629.5,703.5C 629.5,701.833 629.5,700.167 629.5,698.5 Z"/></g>
<g><path style="opacity:1" fill="#749dcb" d="M 602.5,693.5 C 605.547,692.855 607.713,693.855 609,696.5C 610.975,702.759 613.141,708.925 615.5,715C 611.78,716.392 609.78,715.225 609.5,711.5C 606.813,711.336 604.146,711.503 601.5,712C 600.663,713.011 600.33,714.178 600.5,715.5C 598.712,715.785 597.045,715.452 595.5,714.5C 598.043,707.539 600.376,700.539 602.5,693.5 Z"/></g>
<g><path style="opacity:1" fill="#739cca" d="M 649.5,693.5 C 653.833,693.5 658.167,693.5 662.5,693.5C 662.5,695.167 662.5,696.833 662.5,698.5C 659.833,698.5 657.167,698.5 654.5,698.5C 654.5,699.833 654.5,701.167 654.5,702.5C 656.167,702.5 657.833,702.5 659.5,702.5C 659.5,703.833 659.5,705.167 659.5,706.5C 657.833,706.5 656.167,706.5 654.5,706.5C 654.5,708.167 654.5,709.833 654.5,711.5C 657.167,711.5 659.833,711.5 662.5,711.5C 662.5,712.833 662.5,714.167 662.5,715.5C 658.167,715.5 653.833,715.5 649.5,715.5C 649.5,708.167 649.5,700.833 649.5,693.5 Z"/></g>
<g><path style="opacity:1" fill="#7ba1ce" d="M 412.5,693.5 C 417.5,693.5 422.5,693.5 427.5,693.5C 427.5,695.167 427.5,696.833 427.5,698.5C 425.833,698.5 424.167,698.5 422.5,698.5C 422.5,704.167 422.5,709.833 422.5,715.5C 420.833,715.5 419.167,715.5 417.5,715.5C 417.5,709.833 417.5,704.167 417.5,698.5C 415.833,698.5 414.167,698.5 412.5,698.5C 412.5,696.833 412.5,695.167 412.5,693.5 Z"/></g>
<g><path style="opacity:1" fill="#749dcb" d="M 530.5,694.5 C 543.799,694.09 547.966,700.09 543,712.5C 539.319,715.36 535.152,716.193 530.5,715C 524.891,711.723 523.058,706.89 525,700.5C 526.36,697.977 528.193,695.977 530.5,694.5 Z"/></g>
<g><path style="opacity:1" fill="#f8f9fc" d="M 532.5,698.5 C 539.783,699.061 541.95,702.728 539,709.5C 533.616,712.831 530.116,711.331 528.5,705C 529.25,702.429 530.583,700.262 532.5,698.5 Z"/></g>
<g><path style="opacity:1" fill="#f6f8fb" d="M 604.5,702.5 C 606.085,703.474 607.085,704.974 607.5,707C 606.207,707.49 604.873,707.657 603.5,707.5C 603.629,705.784 603.962,704.117 604.5,702.5 Z"/></g>
<g><path style="opacity:1" fill="#739cca" d="M 460.5,693.5 C 475.479,693.009 480.146,699.509 474.5,713C 469.777,715.235 464.777,716.069 459.5,715.5C 459.203,708.08 459.536,700.746 460.5,693.5 Z"/></g>
<g><path style="opacity:1" fill="#fafbfc" d="M 464.5,698.5 C 472.571,699.093 474.571,702.926 470.5,710C 468.655,711.128 466.655,711.628 464.5,711.5C 464.5,707.167 464.5,702.833 464.5,698.5 Z"/></g>
<g><path style="opacity:1" fill="#5386c0" d="M 319.5,698.5 C 320.167,703.681 320.833,709.015 321.5,714.5C 322.329,709.198 322.829,703.864 323,698.5C 323.499,704.157 323.666,709.824 323.5,715.5C 322.167,715.5 320.833,715.5 319.5,715.5C 319.5,709.833 319.5,704.167 319.5,698.5 Z"/></g>
<g><path style="opacity:1" fill="#749dcb" d="M 338.5,693.5 C 344.039,692.638 348.872,693.972 353,697.5C 354.14,701.389 353.307,704.722 350.5,707.5C 351.58,709.996 352.914,712.33 354.5,714.5C 352.926,715.631 351.259,715.798 349.5,715C 347.994,712.667 346.327,710.5 344.5,708.5C 343.526,710.743 343.192,713.076 343.5,715.5C 341.833,715.5 340.167,715.5 338.5,715.5C 338.5,708.167 338.5,700.833 338.5,693.5 Z"/></g>
<g><path style="opacity:1" fill="#f1f6fa" d="M 343.5,698.5 C 345.199,698.34 346.866,698.506 348.5,699C 349.833,700.333 349.833,701.667 348.5,703C 346.866,703.494 345.199,703.66 343.5,703.5C 343.5,701.833 343.5,700.167 343.5,698.5 Z"/></g>
<g><path style="opacity:1" fill="#729bca" d="M 392.5,694.5 C 395.187,694.336 397.854,694.503 400.5,695C 402.032,695.7 403.032,696.866 403.5,698.5C 401.365,699.645 399.199,699.645 397,698.5C 395.72,698.613 394.887,699.28 394.5,700.5C 397.183,702.264 400.016,703.931 403,705.5C 404.327,713.836 400.827,717.003 392.5,715C 388.75,712.658 388.75,710.491 392.5,708.5C 394.464,712.127 396.464,712.293 398.5,709C 396.55,707.116 394.216,705.782 391.5,705C 388.811,701.241 389.145,697.741 392.5,694.5 Z"/></g>
<g><path style="opacity:1" fill="#6a95c8" d="M 672.5,710.5 C 673.833,710.5 675.167,710.5 676.5,710.5C 676.949,712.977 676.283,714.977 674.5,716.5C 671.531,715.235 670.865,713.235 672.5,710.5 Z"/></g>
<g><path style="opacity:1" fill="#7099ca" d="M 686.5,710.5 C 692.175,710.86 692.842,712.86 688.5,716.5C 685.61,715.163 684.943,713.163 686.5,710.5 Z"/></g>
<g><path style="opacity:1" fill="#749cca" d="M 363.5,693.5 C 365.144,693.286 366.644,693.62 368,694.5C 368.333,699.5 368.667,704.5 369,709.5C 371.267,710.935 373.267,710.602 375,708.5C 375.499,703.511 375.666,698.511 375.5,693.5C 376.833,693.5 378.167,693.5 379.5,693.5C 379.666,699.509 379.499,705.509 379,711.5C 374,716.833 369,716.833 364,711.5C 363.501,705.509 363.334,699.509 363.5,693.5 Z"/></g>
<g><path style="opacity:1" fill="#6d98c8" d="M 574.5,694.5 C 578.911,694.021 583.078,694.688 587,696.5C 587.854,698.607 587.188,699.941 585,700.5C 579.088,696.93 575.255,698.43 573.5,705C 575.599,711.476 579.599,713.142 585.5,710C 587.394,711.079 587.727,712.413 586.5,714C 574.07,717.9 568.57,713.4 570,700.5C 571.332,698.34 572.832,696.34 574.5,694.5 Z"/></g>
<g><path style="opacity:1" fill="#6c97c8" d="M 700.5,710.5 C 706.175,710.86 706.842,712.86 702.5,716.5C 699.61,715.163 698.943,713.163 700.5,710.5 Z"/></g>
</svg>
